<svg width="40" height="40" viewBox="0 0 40 40" fill="none" xmlns="http://www.w3.org/2000/svg">
<g id="&#240;&#159;&#166;&#134; icon &#34;What&#39;s App&#34;">
<path id="Vector" d="M33.3729 5.7038C29.7018 2.02393 24.8128 0 19.6172 0C8.89302 0 0.16647 8.72655 0.16647 19.4507C0.16647 22.8765 1.06015 26.2234 2.7599 29.1761L0 39.2519L10.3124 36.5446C13.1512 38.0954 16.3491 38.9102 19.6084 38.9102H19.6172C30.3326 38.9102 39.2519 30.1837 39.2519 19.4595C39.2519 14.2639 37.044 9.38367 33.3729 5.7038ZM19.6172 35.6334C16.7084 35.6334 13.8608 34.8536 11.3813 33.3817L10.7943 33.0312L4.67869 34.6346L6.30835 28.6679L5.92284 28.0546C4.30194 25.4787 3.45207 22.5085 3.45207 19.4507C3.45207 10.5402 10.7067 3.2856 19.626 3.2856C23.9454 3.2856 28.0021 4.96782 31.0511 8.02562C34.1001 11.0834 35.9751 15.14 35.9663 19.4595C35.9663 28.3788 28.5277 35.6334 19.6172 35.6334ZM28.4839 23.5249C28.0021 23.2796 25.6101 22.1055 25.1633 21.9478C24.7165 21.7813 24.3923 21.7025 24.0681 22.1931C23.7439 22.6838 22.8152 23.7702 22.5261 24.1031C22.2457 24.4273 21.9566 24.4711 21.4747 24.2258C18.6184 22.7977 16.7434 21.6762 14.8597 18.4432C14.3603 17.5845 15.3591 17.6458 16.2878 15.7884C16.4455 15.4642 16.3667 15.1838 16.244 14.9385C16.1213 14.6932 15.1488 12.3013 14.7458 11.3287C14.3515 10.3825 13.9485 10.5139 13.6506 10.4964C13.3702 10.4789 13.046 10.4789 12.7218 10.4789C12.3977 10.4789 11.872 10.6015 11.4251 11.0834C10.9783 11.5741 9.72537 12.7481 9.72537 15.14C9.72537 17.5319 11.4689 19.845 11.7055 20.1692C11.9508 20.4934 15.1313 25.3999 20.0115 27.5114C23.0956 28.8432 24.3047 28.9571 25.8467 28.7293C26.7842 28.5891 28.7205 27.5552 29.1235 26.4162C29.5266 25.2772 29.5266 24.3047 29.4039 24.1031C29.29 23.8841 28.9658 23.7614 28.4839 23.5249Z" fill="white"/>
</g>
</svg>
